<mxfile host="65bd71144e" modified="2020-11-08T16:09:32.766Z" agent="5.0 (Macintosh; Intel Mac OS X 10_15_7) AppleWebKit/537.36 (KHTML, like Gecko) Code-Insiders/1.52.0-insider Chrome/83.0.4103.122 Electron/9.3.3 Safari/537.36" etag="vg5D8y60nmlWBr-DE5y9" version="13.6.5">
    <diagram id="6kEoKU1YO7Z2NfugXrZU" name="Page-1">
        <mxGraphModel dx="857" dy="549" grid="1" gridSize="10" guides="1" tooltips="1" connect="1" arrows="1" fold="1" page="1" pageScale="1" pageWidth="827" pageHeight="1169" math="0" shadow="0">
            <root>
                <mxCell id="0"/>
                <mxCell id="1" parent="0"/>
                <mxCell id="Yu83KCBUmFokZu4c4NHC-1" value="k3s service lb" style="text;html=1;strokeColor=none;fillColor=none;align=center;verticalAlign=middle;whiteSpace=wrap;rounded=0;" parent="1" vertex="1">
                    <mxGeometry x="120" y="180" width="130" height="20" as="geometry"/>
                </mxCell>
                <mxCell id="Yu83KCBUmFokZu4c4NHC-2" value="" style="curved=1;endArrow=classic;html=1;" parent="1" edge="1">
                    <mxGeometry width="50" height="50" relative="1" as="geometry">
                        <mxPoint x="180" y="210" as="sourcePoint"/>
                        <mxPoint x="180" y="170" as="targetPoint"/>
                        <Array as="points">
                            <mxPoint x="180" y="240"/>
                            <mxPoint x="110" y="230"/>
                            <mxPoint x="100" y="160"/>
                            <mxPoint x="130" y="150"/>
                            <mxPoint x="170" y="150"/>
                        </Array>
                    </mxGeometry>
                </mxCell>
                <mxCell id="Yu83KCBUmFokZu4c4NHC-4" value="&lt;a href=&quot;https://github.com/rancher/k3s/blob/master/pkg/servicelb/controller.go&quot;&gt;https://github.com/rancher/k3s/blob/master/pkg/servicelb/controller.go&lt;/a&gt;" style="text;html=1;strokeColor=none;fillColor=none;align=center;verticalAlign=middle;whiteSpace=wrap;rounded=0;" parent="1" vertex="1">
                    <mxGeometry x="70" y="110" width="380" height="30" as="geometry"/>
                </mxCell>
                <mxCell id="Yu83KCBUmFokZu4c4NHC-5" value="" style="endArrow=classic;html=1;" parent="1" edge="1">
                    <mxGeometry width="50" height="50" relative="1" as="geometry">
                        <mxPoint x="150" y="250" as="sourcePoint"/>
                        <mxPoint x="150" y="340" as="targetPoint"/>
                    </mxGeometry>
                </mxCell>
                <mxCell id="Yu83KCBUmFokZu4c4NHC-6" value="creates via a DeamonSet" style="text;html=1;strokeColor=none;fillColor=none;align=center;verticalAlign=middle;whiteSpace=wrap;rounded=0;" parent="1" vertex="1">
                    <mxGeometry x="140" y="270" width="110" height="40" as="geometry"/>
                </mxCell>
                <mxCell id="Yu83KCBUmFokZu4c4NHC-8" value="Pod rancher/klipper-lb:v0.1.2&lt;br&gt;with &lt;font face=&quot;Courier New&quot;&gt;hostPort&lt;/font&gt; on 80 and 443" style="rounded=0;whiteSpace=wrap;html=1;" parent="1" vertex="1">
                    <mxGeometry x="60" y="350" width="190" height="60" as="geometry"/>
                </mxCell>
                <mxCell id="2" value="Text" style="text;html=1;resizable=0;autosize=1;align=center;verticalAlign=middle;points=[];fillColor=none;strokeColor=none;rounded=0;" vertex="1" parent="1">
                    <mxGeometry x="120" y="190" width="40" height="20" as="geometry"/>
                </mxCell>
            </root>
        </mxGraphModel>
    </diagram>
</mxfile>